<svg width="14" height="12" viewBox="0 0 14 12" fill="none" xmlns="http://www.w3.org/2000/svg">
<path d="M1.92345 1.90002H1.42345V2.40002V4.66669V5.16669H1.43678V5.60002V10.4V10.9H1.93678H12.0701H12.5701V10.4V5.60002V5.10002H12.5568V4.66669V2.40002V1.90002H12.0568H11.3501C11.3425 1.90002 11.3346 1.89736 11.327 1.8898C11.3194 1.88225 11.3168 1.8743 11.3168 1.86669C11.3168 1.85908 11.3194 1.85114 11.327 1.84358C11.3346 1.83602 11.3425 1.83336 11.3501 1.83336H12.5862C12.5895 1.83499 12.5962 1.83935 12.6057 1.84992C12.6154 1.86082 12.624 1.87456 12.6298 1.88908C12.6355 1.90356 12.6368 1.91446 12.6368 1.92001V10.9334C12.6368 10.941 12.6341 10.9489 12.6266 10.9565C12.619 10.964 12.6111 10.9667 12.6034 10.9667H1.40345C1.39584 10.9667 1.3879 10.964 1.38034 10.9565C1.37278 10.9489 1.37012 10.941 1.37012 10.9334V1.92001C1.37012 1.91442 1.3714 1.9031 1.3774 1.88786C1.38342 1.87258 1.39236 1.85813 1.40236 1.84675C1.40837 1.83991 1.41309 1.83576 1.41631 1.83336H2.64346C2.65107 1.83336 2.65901 1.83602 2.66657 1.84358C2.67413 1.85114 2.67679 1.85908 2.67679 1.86669C2.67679 1.8743 2.67413 1.88225 2.66657 1.8898C2.65901 1.89736 2.65107 1.90002 2.64346 1.90002H1.92345ZM12.5838 1.83251C12.5838 1.83246 12.5843 1.83255 12.5853 1.83297L12.5838 1.83251ZM1.42119 1.83041C1.42121 1.83047 1.42066 1.83079 1.4195 1.8312C1.4206 1.83056 1.42118 1.83035 1.42119 1.83041ZM4.30345 2.77336V1.06669C4.30345 0.9695 4.37293 0.900024 4.47012 0.900024C4.56731 0.900024 4.63678 0.9695 4.63678 1.06669V2.77336C4.63678 2.87056 4.56731 2.94003 4.47012 2.94003C4.37293 2.94003 4.30345 2.87056 4.30345 2.77336ZM9.70345 2.77336C9.70345 2.87055 9.63397 2.94003 9.53678 2.94003C9.43959 2.94003 9.37012 2.87056 9.37012 2.77336V1.06669C9.37012 0.9695 9.43959 0.900024 9.53678 0.900024C9.63397 0.900024 9.70345 0.969501 9.70345 1.06669V2.77336ZM7.84346 1.90002H6.16344C6.15583 1.90002 6.14789 1.89736 6.14033 1.8898C6.13277 1.88225 6.13011 1.8743 6.13011 1.86669C6.13011 1.85908 6.13277 1.85114 6.14033 1.84358C6.14789 1.83602 6.15583 1.83336 6.16344 1.83336H7.84346C7.85107 1.83336 7.85901 1.83602 7.86657 1.84358C7.87413 1.85114 7.87679 1.85908 7.87679 1.86669C7.87679 1.8743 7.87413 1.88225 7.86657 1.8898C7.85901 1.89736 7.85107 1.90002 7.84346 1.90002Z" fill="#74799F" stroke="#74799F"/>
</svg>
